# xmcd
#
# Track frame offsets:
#	187
#	18257
#	36157
#	58172
#	79530
#	101295
#	116880
#	130002
#	142285
#	157360
#
# Disc length: 2259 seconds
#
# Revision: 1
# Processed by: cddbd v1.5.1PL2 Copyright (c) Steve Scherf et al.
# Submitted via: audiograbber 1.83.01
#
DISCID=8908d10a
DTITLE=JVC - JVC60
DYEAR=1900
DGENRE=Karaoke Country
TTITLE0=Milsap, Ronnie - Show Her
TTITLE1=Milsap, Ronnie - Stranger In My House
TTITLE2=Milsap, Ronnie - Still Losing You
TTITLE3=Milsap, Ronnie - In Love
TTITLE4=Milsap, Ronnie - Where Do Nights Go
TTITLE5=Newton John, Olivia - A Little More Love
TTITLE6=Jennings, Waylon - I'M A Rambling Man
TTITLE7=Nelson, Willie and Jennings, Waylon - Mamas Don'T Let Yr Babies Grow Up T
TTITLE7=o Be Cowboys
TTITLE8=Lewis, Jerry Lee - Rockin' My Life Away
TTITLE9=Bell, William - Trying To Love Two Women
EXTD=
EXTT0=
EXTT1=
EXTT2=
EXTT3=
EXTT4=
EXTT5=
EXTT6=
EXTT7=
EXTT8=
EXTT9=
PLAYORDER=
